# xmcd
#
# Track frame offsets: 
#        150
#        42472
#        99422
#        130657
#        164358
#        192415
#        247324
#        266219
#        319328
#
# Disc length: 4538 seconds
#
# Revision: 1
# Processed by: cddbd v1.5.2PL0 Copyright (c) Steve Scherf et al.
# Submitted via: ExactAudioCopy v0.95b4
#
DISCID=8711b809
DTITLE=Wardell Gray - Giants Of Jazz
DYEAR=1999
DGENRE=Jazz
TTITLE0=Blue Lou (Sampson-Mills)
TTITLE1=One O'Clock Jump (Basie)
TTITLE2=Groovin' High (Gillespie)
TTITLE3=Be Bop (Gillespie)
TTITLE4=Hot House (Dameron)
TTITLE5=Sweet Georgia Brown (Bernie-Pinkard-Casey)
TTITLE6=C Jam Blues (Ellington)
TTITLE7=Just You, Just Me (Just Bop)(Klages-Greer)
TTITLE8=The Great Lie (Gibson)
EXTD=
EXTT0=
EXTT1=
EXTT2=
EXTT3=
EXTT4=
EXTT5=
EXTT6=
EXTT7=
EXTT8=
PLAYORDER=
